<?xml version="1.0" encoding="UTF-8" standalone="no"?>
<!-- Created with Inkscape (http://www.inkscape.org/) -->

<svg
   xmlns:dc="http://purl.org/dc/elements/1.1/"
   xmlns:cc="http://creativecommons.org/ns#"
   xmlns:rdf="http://www.w3.org/1999/02/22-rdf-syntax-ns#"
   xmlns:svg="http://www.w3.org/2000/svg"
   xmlns="http://www.w3.org/2000/svg"
   xmlns:sodipodi="http://sodipodi.sourceforge.net/DTD/sodipodi-0.dtd"
   xmlns:inkscape="http://www.inkscape.org/namespaces/inkscape"
   width="200mm"
   height="200mm"
   viewBox="0 0 200 200"
   version="1.1"
   id="svg8"
   inkscape:version="0.92.3 (2405546, 2018-03-11)"
   sodipodi:docname="feedme.svg"
   inkscape:export-filename="C:\Users\ruben\Pictures\feedme-512px.png"
   inkscape:export-xdpi="65.024002"
   inkscape:export-ydpi="65.024002">
  <defs
     id="defs2" />
  <sodipodi:namedview
     id="base"
     pagecolor="#ffffff"
     bordercolor="#666666"
     borderopacity="1.0"
     inkscape:pageopacity="0.0"
     inkscape:pageshadow="2"
     inkscape:zoom="0.49497475"
     inkscape:cx="201.0495"
     inkscape:cy="363.01874"
     inkscape:document-units="mm"
     inkscape:current-layer="g4658"
     showgrid="false"
     showguides="false"
     inkscape:window-width="1920"
     inkscape:window-height="1017"
     inkscape:window-x="-8"
     inkscape:window-y="-8"
     inkscape:window-maximized="1" />
  <metadata
     id="metadata5">
    <rdf:RDF>
      <cc:Work
         rdf:about="">
        <dc:format>image/svg+xml</dc:format>
        <dc:type
           rdf:resource="http://purl.org/dc/dcmitype/StillImage" />
        <dc:title></dc:title>
      </cc:Work>
    </rdf:RDF>
  </metadata>
  <g
     inkscape:label="Layer 1"
     inkscape:groupmode="layer"
     id="layer1"
     transform="translate(-5,-48.5)">
    <rect
       style="fill:#ffffff;fill-opacity:1;stroke:none;stroke-width:0.09983657;stroke-linecap:round;stroke-miterlimit:4;stroke-dasharray:none;stroke-opacity:1"
       id="rect4660"
       width="200"
       height="200"
       x="5"
       y="48.5"
       ry="36.081387" />
    <g
       id="g4600"
       transform="translate(0.32737448,20.547664)" />
    <text
       xml:space="preserve"
       style="font-style:normal;font-weight:normal;font-size:10.58333302px;line-height:1.25;font-family:sans-serif;letter-spacing:0px;word-spacing:0px;fill:#000000;fill-opacity:1;stroke:none;stroke-width:0.26458332"
       x="108.14393"
       y="132.36197"
       id="text4560"><tspan
         sodipodi:role="line"
         id="tspan4558"
         x="108.14393"
         y="142.01747"
         style="stroke-width:0.26458332"></tspan></text>
    <text
       xml:space="preserve"
       style="font-style:normal;font-weight:normal;font-size:10.58333302px;line-height:1.25;font-family:sans-serif;letter-spacing:0px;word-spacing:0px;fill:#000000;fill-opacity:1;stroke:none;stroke-width:0.26458332"
       x="76.505585"
       y="131.43655"
       id="text4579"><tspan
         sodipodi:role="line"
         id="tspan4577"
         x="76.505585"
         y="141.09206"
         style="stroke-width:0.26458332"></tspan></text>
    <g
       id="g4658">
      <path
         style="fill:#d32f2f;stroke:none;stroke-width:1.25764239px;stroke-linecap:butt;stroke-linejoin:miter;stroke-opacity:1;fill-opacity:1"
         d="m 59.792404,124.48672 c -1.495377,-8.49733 0.587241,-16.08225 4.696887,-22.62231 4.508357,-7.174578 10.22717,-9.486388 19.115559,-6.882528 8.549785,2.5046 12.649405,11.014328 9.725235,17.589708 -3.441874,7.73945 -4.823704,15.15502 -4.704192,21.7978 z"
         id="path4535"
         inkscape:connector-curvature="0"
         sodipodi:nodetypes="cssscc"
         transform="translate(0.32737446,20.547665)" />
      <path
         style="fill:none;stroke:#1a1a1a;stroke-width:4.27796507;stroke-linecap:butt;stroke-linejoin:miter;stroke-miterlimit:4;stroke-dasharray:none;stroke-opacity:1"
         d="M 33.867689,100.40491 C 71.28664,147.38932 137.96516,147.32896 176.1537,101.04009"
         id="path4529"
         inkscape:connector-curvature="0"
         sodipodi:nodetypes="cc"
         transform="translate(0.32737446,20.547665)" />
      <path
         style="fill:none;stroke:#1a1a1a;stroke-width:4.27796507;stroke-linecap:round;stroke-linejoin:miter;stroke-miterlimit:4;stroke-dasharray:none;stroke-opacity:1"
         d="m 174.27506,87.356362 c -6.20842,13.702648 7.98957,20.573348 16.55501,10.9176"
         id="path4531"
         inkscape:connector-curvature="0"
         sodipodi:nodetypes="cc"
         transform="translate(0.32737446,20.547665)" />
      <path
         style="fill:none;stroke:#1a1a1a;stroke-width:4.27796507;stroke-linecap:round;stroke-linejoin:miter;stroke-miterlimit:4;stroke-dasharray:none;stroke-opacity:1"
         d="m 35.070168,88.024482 c 6.208421,13.702648 -7.989575,20.573348 -16.554987,10.9176"
         id="path4531-2"
         inkscape:connector-curvature="0"
         sodipodi:nodetypes="cc"
         transform="translate(0.32737446,20.547665)" />
      <path
         style="fill:none;stroke:#1a1a1a;stroke-width:4.27796507;stroke-linecap:round;stroke-linejoin:miter;stroke-miterlimit:4;stroke-dasharray:none;stroke-opacity:1"
         d="m 73.488628,128.98913 c -0.554539,-6.36014 -0.177393,-11.3175 4.343303,-19.77256"
         id="path4552"
         inkscape:connector-curvature="0"
         sodipodi:nodetypes="cc"
         transform="translate(0.32737446,20.547665)" />
      <g
         aria-label="feed me"
         transform="translate(0.32737446,20.547665)"
         style="font-style:normal;font-variant:normal;font-weight:normal;font-stretch:normal;font-size:36.89084625px;line-height:1.25;font-family:'Eras Demi ITC';-inkscape-font-specification:'Eras Demi ITC';letter-spacing:0px;word-spacing:0px;fill:#1a1a1a;fill-opacity:1;stroke:none;stroke-width:1.53520608"
         id="text4556">
        <path
           d="m 44.65131,170.28275 0.216157,-2.97217 0.540393,-11.70852 h -2.233625 q 0.05404,-0.54039 0.108078,-1.74727 0.07205,-1.22489 0.09007,-1.7833 h 2.449783 v -0.72052 q 0,-1.9274 0.162118,-2.93614 0.162118,-1.02675 0.594432,-1.67522 0.450328,-0.64847 1.242905,-1.11681 0.810589,-0.48635 1.765284,-0.64847 0.954695,-0.18013 1.963429,-0.18013 2.053494,0 4.341159,0.57642 0.05404,2.01746 0.198144,3.45851 -1.729258,-0.61244 -3.152294,-0.61244 -0.558406,0 -1.026747,0.1441 -0.468341,0.12609 -0.774563,0.36026 -0.28821,0.23417 -0.486354,0.61245 -0.198145,0.37828 -0.270197,0.90066 -0.07205,0.50436 -0.07205,1.17085 v 0.66648 h 4.593342 q -0.108078,1.24291 -0.216157,3.53057 h -4.323146 q -0.342249,7.16922 -0.52238,14.68069 -1.639193,-0.036 -2.611901,-0.036 -0.990721,0 -2.575874,0.036 z"
           style="letter-spacing:-2.51528502px;fill:#1a1a1a;stroke-width:1.53520608"
           id="path5236" />
        <path
           d="m 70.50667,166.19377 q -0.23417,1.06277 -0.666485,3.81878 -1.945416,0.4143 -3.278386,0.55841 -1.33297,0.1441 -2.683953,0.1441 -2.359717,0 -4.23308,-0.46834 -1.85535,-0.46834 -3.260373,-1.71125 -1.405022,-1.26091 -2.071507,-3.08024 -0.666485,-1.81932 -0.666485,-3.81878 0,-2.21561 0.774563,-4.28712 0.774564,-2.08952 2.161573,-3.40447 1.405023,-1.33297 3.18832,-1.87337 1.783298,-0.5584 3.728714,-0.5584 1.837337,0 3.494543,0.46834 1.657206,0.45032 2.774019,1.49509 1.134826,1.04476 1.729258,2.52183 0.612446,1.45906 0.612446,3.26037 0,0.84662 -0.180131,1.74727 l -13.203609,0.018 q -0.03603,0.66648 -0.03603,1.06277 0,1.20688 0.414301,2.21561 0.414302,1.00874 1.206879,1.71125 0.792577,0.70251 1.891376,1.04476 1.0988,0.32423 2.161573,0.32423 1.242905,0 2.683953,-0.27019 1.459062,-0.2702 3.458517,-0.91867 z m -11.636468,-7.2773 8.430135,0.018 q 0,-0.86463 -0.05404,-1.27893 -0.05404,-0.41431 -0.252184,-0.93669 -0.180131,-0.54039 -0.504367,-0.93668 -0.324236,-0.4143 -0.756551,-0.6845 -0.432314,-0.27019 -1.008734,-0.4143 -0.558406,-0.1441 -1.206878,-0.1441 -0.75655,0 -1.477075,0.23417 -0.702511,0.23417 -1.296944,0.6845 -0.594432,0.45032 -0.972708,1.00873 -0.360262,0.55841 -0.540393,1.08079 -0.180131,0.50436 -0.360262,1.36899 z"
           style="letter-spacing:-2.51528502px;fill:#1a1a1a;stroke-width:1.53520608"
           id="path5238" />
        <path
           d="m 88.670435,166.19377 q -0.23417,1.06277 -0.666485,3.81878 -1.945416,0.4143 -3.278386,0.55841 -1.33297,0.1441 -2.683953,0.1441 -2.359717,0 -4.23308,-0.46834 -1.85535,-0.46834 -3.260373,-1.71125 -1.405022,-1.26091 -2.071507,-3.08024 -0.666485,-1.81932 -0.666485,-3.81878 0,-2.21561 0.774563,-4.28712 0.774564,-2.08952 2.161573,-3.40447 1.405023,-1.33297 3.18832,-1.87337 1.783298,-0.5584 3.728714,-0.5584 1.837337,0 3.494543,0.46834 1.657206,0.45032 2.774019,1.49509 1.134826,1.04476 1.729258,2.52183 0.612446,1.45906 0.612446,3.26037 0,0.84662 -0.180131,1.74727 l -13.203609,0.018 q -0.03603,0.66648 -0.03603,1.06277 0,1.20688 0.414301,2.21561 0.414302,1.00874 1.206879,1.71125 0.792576,0.70251 1.891376,1.04476 1.0988,0.32423 2.161573,0.32423 1.242905,0 2.683953,-0.27019 1.459062,-0.2702 3.458517,-0.91867 z m -11.636468,-7.2773 8.430135,0.018 q 0,-0.86463 -0.05404,-1.27893 -0.05404,-0.41431 -0.252183,-0.93669 -0.180131,-0.54039 -0.504367,-0.93668 -0.324236,-0.4143 -0.756551,-0.6845 -0.432314,-0.27019 -1.008734,-0.4143 -0.558406,-0.1441 -1.206878,-0.1441 -0.756551,0 -1.477075,0.23417 -0.702511,0.23417 -1.296944,0.6845 -0.594432,0.45032 -0.972708,1.00873 -0.360262,0.55841 -0.540393,1.08079 -0.180131,0.50436 -0.360262,1.36899 z"
           style="letter-spacing:-2.51528502px;fill:#1a1a1a;stroke-width:1.53520608"
           id="path5240" />
        <path
           d="m 109.10385,170.28275 q -1.49509,-0.036 -2.32369,-0.036 -0.90066,0 -2.48581,0.036 l 0.16212,-3.13429 q -0.79258,1.02675 -1.369,1.58516 -0.55841,0.5584 -1.40502,1.04476 -0.82861,0.46834 -1.801314,0.70251 -0.972707,0.23417 -2.017468,0.23417 -1.729258,0 -3.242359,-0.63046 -1.513101,-0.63046 -2.575875,-1.76528 -1.062773,-1.15284 -1.56714,-2.71998 -0.504367,-1.58516 -0.504367,-3.2964 0,-2.35972 0.900655,-4.59334 0.900656,-2.25164 2.467796,-3.63865 1.56714,-1.38701 3.548582,-1.96343 1.981442,-0.57642 4.25109,-0.57642 1.6392,0 3.7107,0.30622 0.1261,-2.3417 0.1261,-4.91758 v -1.22489 q 1.69323,0.036 2.59388,0.036 1.17086,0 2.62992,-0.036 -0.39629,4.57533 -0.75655,12.46507 -0.34225,7.87173 -0.34225,12.12283 z m -4.44924,-15.02294 q -1.35098,-0.36026 -2.59389,-0.36026 -1.42303,0 -2.719977,0.39629 -1.296944,0.39629 -2.305678,1.35098 -0.990721,0.9547 -1.531114,2.44978 -0.540393,1.49509 -0.540393,2.8821 0,1.38701 0.486354,2.53985 0.504367,1.15284 1.549127,1.81932 1.04476,0.66649 2.359717,0.66649 0.990724,0 1.801314,-0.34225 0.81059,-0.36026 1.47707,-1.08079 0.66649,-0.73853 1.11681,-1.89137 0.46835,-1.15284 0.66649,-3.06223 0.12609,-1.40502 0.23417,-5.36791 z"
           style="letter-spacing:-2.51528502px;fill:#1a1a1a;stroke-width:1.53520608"
           id="path5242" />
        <path
           d="m 117.76324,170.28275 q 0.25219,-3.06223 0.52238,-9.15066 0.28821,-6.08843 0.28821,-9.16868 1.53112,0.036 2.48581,0.036 1.0988,0 2.37773,-0.036 l -0.1441,2.90011 q 0.57642,-0.84661 1.04476,-1.36899 0.48635,-0.5404 1.2429,-0.99072 0.75655,-0.45033 1.76529,-0.70251 1.02675,-0.2702 2.10753,-0.2702 0.81059,0 1.56714,0.16212 0.75655,0.1441 1.369,0.43231 0.63046,0.2702 1.06277,0.63046 0.45033,0.36026 0.75655,0.81059 0.30623,0.43232 0.66649,1.29694 0.39629,-0.63045 0.72052,-1.04476 0.34225,-0.43231 0.90066,-0.88264 0.5584,-0.45033 1.2429,-0.75655 0.6845,-0.30622 1.53112,-0.46834 0.86462,-0.18013 1.78329,-0.18013 1.56714,0 2.95415,0.52238 1.38701,0.50437 2.17959,1.62118 0.79258,1.0988 0.79258,2.73799 0,0.86463 -0.1261,2.53985 -0.12609,1.67522 -0.30622,5.47599 -0.18013,3.78275 -0.19814,5.85426 -1.31496,-0.036 -2.32369,-0.036 -1.18887,0 -2.79204,0.036 0.16212,-2.3237 0.30623,-4.86354 l 0.21615,-4.12501 q 0.0901,-1.56714 0.0901,-2.64792 0,-1.27893 -0.4143,-1.92741 -0.39629,-0.66648 -1.02675,-0.93668 -0.61244,-0.28821 -1.38701,-0.28821 -0.81059,0 -1.47707,0.30623 -0.64847,0.30622 -1.22489,0.99072 -0.55841,0.6845 -0.86463,1.60316 -0.30623,0.90066 -0.45033,2.55787 -0.14411,1.63919 -0.23417,4.32314 l -0.12609,5.00765 q -1.49509,-0.036 -2.48581,-0.036 -0.99072,0 -2.64793,0.036 0.12609,-1.38701 0.36026,-5.67413 0.23417,-4.28712 0.23417,-5.78221 0,-0.79258 -0.12609,-1.33297 -0.12609,-0.55841 -0.52238,-1.04476 -0.37827,-0.50437 -0.90065,-0.73854 -0.52238,-0.23417 -1.20688,-0.23417 -1.26092,0 -2.21561,0.8286 -0.9547,0.82861 -1.40503,2.21562 -0.43231,1.387 -0.63046,5.40393 -0.18013,3.99891 -0.18013,6.35863 -1.6572,-0.036 -2.50382,-0.036 -0.95469,0 -2.64793,0.036 z"
           style="letter-spacing:-2.51528502px;fill:#1a1a1a;stroke-width:1.53520608"
           id="path5244" />
        <path
           d="m 164.56785,166.19377 q -0.23417,1.06277 -0.66649,3.81878 -1.94541,0.4143 -3.27838,0.55841 -1.33297,0.1441 -2.68396,0.1441 -2.35971,0 -4.23308,-0.46834 -1.85535,-0.46834 -3.26037,-1.71125 -1.40502,-1.26091 -2.07151,-3.08024 -0.66648,-1.81932 -0.66648,-3.81878 0,-2.21561 0.77456,-4.28712 0.77456,-2.08952 2.16157,-3.40447 1.40503,-1.33297 3.18832,-1.87337 1.7833,-0.5584 3.72872,-0.5584 1.83733,0 3.49454,0.46834 1.65721,0.45032 2.77402,1.49509 1.13482,1.04476 1.72926,2.52183 0.61244,1.45906 0.61244,3.26037 0,0.84662 -0.18013,1.74727 l -13.20361,0.018 q -0.036,0.66648 -0.036,1.06277 0,1.20688 0.4143,2.21561 0.4143,1.00874 1.20688,1.71125 0.79257,0.70251 1.89137,1.04476 1.0988,0.32423 2.16158,0.32423 1.2429,0 2.68395,-0.27019 1.45906,-0.2702 3.45852,-0.91867 z m -11.63647,-7.2773 8.43013,0.018 q 0,-0.86463 -0.054,-1.27893 -0.054,-0.41431 -0.25218,-0.93669 -0.18013,-0.54039 -0.50437,-0.93668 -0.32423,-0.4143 -0.75655,-0.6845 -0.43231,-0.27019 -1.00873,-0.4143 -0.55841,-0.1441 -1.20688,-0.1441 -0.75655,0 -1.47707,0.23417 -0.70252,0.23417 -1.29695,0.6845 -0.59443,0.45032 -0.97271,1.00873 -0.36026,0.55841 -0.54039,1.08079 -0.18013,0.50436 -0.36026,1.36899 z"
           style="letter-spacing:-2.51528502px;fill:#1a1a1a;stroke-width:1.53520608"
           id="path5246" />
      </g>
    </g>
  </g>
</svg>
