<?xml version="1.0" encoding="UTF-8" standalone="no"?>
<!-- Generator: Adobe Illustrator 16.0.0, SVG Export Plug-In . SVG Version: 6.00 Build 0)  -->

<svg
   xmlns:dc="http://purl.org/dc/elements/1.1/"
   xmlns:cc="http://creativecommons.org/ns#"
   xmlns:rdf="http://www.w3.org/1999/02/22-rdf-syntax-ns#"
   xmlns:svg="http://www.w3.org/2000/svg"
   xmlns="http://www.w3.org/2000/svg"
   xmlns:sodipodi="http://sodipodi.sourceforge.net/DTD/sodipodi-0.dtd"
   xmlns:inkscape="http://www.inkscape.org/namespaces/inkscape"
   version="1.1"
   id="Capa_1"
   x="0px"
   y="0px"
   width="23.999998"
   height="23.999996"
   viewBox="0 0 23.999998 23.999996"
   xml:space="preserve"
   sodipodi:docname="filter.svg"
   inkscape:version="0.92.3 (2405546, 2018-03-11)"><metadata
   id="metadata41"><rdf:RDF><cc:Work
       rdf:about=""><dc:format>image/svg+xml</dc:format><dc:type
         rdf:resource="http://purl.org/dc/dcmitype/StillImage" /><dc:title></dc:title></cc:Work></rdf:RDF></metadata><defs
   id="defs39" /><sodipodi:namedview
   pagecolor="#ffffff"
   bordercolor="#666666"
   borderopacity="1"
   objecttolerance="10"
   gridtolerance="10"
   guidetolerance="10"
   inkscape:pageopacity="0"
   inkscape:pageshadow="2"
   inkscape:window-width="1920"
   inkscape:window-height="1017"
   id="namedview37"
   showgrid="false"
   inkscape:zoom="21.975914"
   inkscape:cx="12.501653"
   inkscape:cy="12.390002"
   inkscape:window-x="-8"
   inkscape:window-y="-8"
   inkscape:window-maximized="1"
   inkscape:current-layer="Capa_1"
   fit-margin-top="0"
   fit-margin-left="0"
   fit-margin-right="0"
   fit-margin-bottom="0" />
<g
   id="g4"
   style="fill:#ffffff"
   transform="matrix(0.02076484,0,0,0.02057641,1.9084332,1.9999992)">
	<path
   d="m 370.216,459.3 c 10.2,11.1 15.8,25.6 15.8,40.6 v 442 c 0,26.601 32.1,40.101 51.1,21.4 L 560.416,822 c 16.5,-19.8 25.6,-29.601 25.6,-49.2 V 500 c 0,-15 5.7,-29.5 15.8,-40.601 L 955.615,75.5 C 982.115,46.7 961.716,0 922.515,0 h -873 c -39.2,0 -59.7,46.6 -33.1,75.5 z"
   id="path2"
   style="fill:#ffffff"
   inkscape:connector-curvature="0" />
</g>
<g
   id="g6"
   transform="translate(-8.7779673,-27.706494)">
</g>
<g
   id="g8"
   transform="translate(-8.7779673,-27.706494)">
</g>
<g
   id="g10"
   transform="translate(-8.7779673,-27.706494)">
</g>
<g
   id="g12"
   transform="translate(-8.7779673,-27.706494)">
</g>
<g
   id="g14"
   transform="translate(-8.7779673,-27.706494)">
</g>
<g
   id="g16"
   transform="translate(-8.7779673,-27.706494)">
</g>
<g
   id="g18"
   transform="translate(-8.7779673,-27.706494)">
</g>
<g
   id="g20"
   transform="translate(-8.7779673,-27.706494)">
</g>
<g
   id="g22"
   transform="translate(-8.7779673,-27.706494)">
</g>
<g
   id="g24"
   transform="translate(-8.7779673,-27.706494)">
</g>
<g
   id="g26"
   transform="translate(-8.7779673,-27.706494)">
</g>
<g
   id="g28"
   transform="translate(-8.7779673,-27.706494)">
</g>
<g
   id="g30"
   transform="translate(-8.7779673,-27.706494)">
</g>
<g
   id="g32"
   transform="translate(-8.7779673,-27.706494)">
</g>
<g
   id="g34"
   transform="translate(-8.7779673,-27.706494)">
</g>
</svg>