<svg id="menu_icon" data-name="menu icon" xmlns="http://www.w3.org/2000/svg" width="62.659" height="62.659" viewBox="0 0 62.659 62.659">
  <path id="Path_9" data-name="Path 9" d="M0,0H62.659V62.659H0Z" fill="none"/>
  <path id="Path_10" data-name="Path 10" d="M44.773,6.222H33.859a7.8,7.8,0,0,0-14.725,0H8.222A5.237,5.237,0,0,0,3,11.443V47.994a5.237,5.237,0,0,0,5.222,5.222H44.773a5.237,5.237,0,0,0,5.222-5.222V11.443A5.237,5.237,0,0,0,44.773,6.222Zm-18.275,0a2.611,2.611,0,1,1-2.611,2.611A2.618,2.618,0,0,1,26.5,6.222ZM39.551,42.773H13.443V37.551H39.551Zm0-10.443H13.443V27.108H39.551Zm0-10.443H13.443V16.665H39.551Z" transform="translate(4.832 2.611)" fill="#fff"/>
</svg>
